<svg xmlns="http://www.w3.org/2000/svg" version="1.1" xmlns:xlink="http://www.w3.org/1999/xlink" xmlns:svgjs="http://svgjs.dev/svgjs" width="364.99" height="307.35"><svg xmlns="http://www.w3.org/2000/svg" xmlns:xlink="http://www.w3.org/1999/xlink" zoomAndPan="magnify" preserveAspectRatio="xMidYMid meet" version="1.0" viewBox="5.4 34.33 364.99 307.35"><path fill="#ff6f61" d="M 168.378906 184.332031 C 134.5 213.609375 98.585938 240.640625 66.3125 271.710938 C 57.773438 280.304688 49.667969 289.65625 41.535156 298.519531 C 36.398438 304.382812 31.019531 310.535156 27.445312 317.316406 C 23.675781 324.59375 24.5 329.433594 31.71875 333.074219 C 34.832031 334.25 38.292969 334.117188 41.679688 334.210938 C 45.613281 334.214844 49.628906 334.003906 53.644531 333.722656 C 69.792969 332.503906 85.957031 330.222656 102.007812 327.832031 C 174.449219 316.585938 246.65625 301.765625 318.417969 286.625 C 331.390625 283.578125 364.183594 274.507812 363.527344 258.527344 C 362.125 247.394531 350.308594 240.703125 341.164062 235.527344 C 319.71875 224.191406 296.480469 216.507812 273.332031 209.15625 C 242.222656 199.550781 210.570312 191.339844 178.820312 184.175781 C 177.230469 183.835938 176.21875 182.261719 176.574219 180.671875 C 176.925781 179.101562 178.480469 178.105469 180.054688 178.449219 C 212.09375 185.503906 243.808594 193.554688 275.207031 203.070312 C 298.742188 210.40625 322.382812 218.089844 344.375 229.582031 C 353.769531 234.769531 363.777344 240.660156 368.539062 250.984375 C 379.589844 276.984375 338.40625 289.039062 319.984375 293.4375 C 239.988281 310.296875 159.792969 327.394531 78.757812 338.589844 C 64.335938 340.25 49.8125 342.390625 35.1875 341.445312 C 32.773438 341.191406 30.089844 340.796875 27.875 339.546875 C 23.515625 337.269531 19.21875 333.460938 18.0625 328.242188 C 16.097656 318.710938 22.605469 310.097656 27.8125 303.058594 C 35.445312 293.308594 44.171875 284.445312 52.320312 275.296875 C 57.765625 269.121094 63.835938 263.289062 69.878906 257.699219 C 88.003906 241.058594 106.875 225.28125 125.886719 209.714844 C 138.597656 199.402344 151.480469 189.324219 164.761719 179.722656 C 167.820312 177.632812 171.167969 181.835938 168.378906 184.332031 Z M 168.378906 184.332031 " fill-opacity="1" fill-rule="nonzero"></path><path fill="#ff6f61" d="M 113.007812 95.152344 C 113.011719 75.941406 132.332031 54.597656 148.109375 45.109375 C 171.890625 30.4375 197.769531 34.496094 213.769531 58.066406 C 234.773438 91.207031 200.828125 125.59375 175.371094 144.03125 C 171.238281 147.003906 167.117188 149.757812 162.695312 152.347656 C 162.695312 152.347656 164.003906 149.414062 164.003906 149.414062 C 164.003906 149.414062 169.214844 181.558594 169.214844 181.558594 C 169.738281 185.328125 164.191406 186.351562 163.433594 182.496094 C 163.433594 182.496094 158.21875 150.351562 158.21875 150.351562 C 158.027344 149.171875 158.570312 148.042969 159.511719 147.429688 C 179.707031 132.015625 218.753906 97.894531 207.527344 69.652344 C 204.285156 61.8125 197.691406 55.042969 190.414062 50.945312 C 169.367188 39.804688 145.5 55.527344 131.523438 71.347656 C 125.765625 78.058594 119.867188 86.402344 118.863281 95.152344 C 118.65625 98.929688 113.195312 98.917969 113.007812 95.152344 Z M 113.007812 95.152344 " fill-opacity="1" fill-rule="nonzero"></path><path fill="#ff6f61" d="M 168.378906 184.332031 C 134.5 213.609375 98.585938 240.640625 66.3125 271.710938 C 57.773438 280.304688 49.667969 289.65625 41.535156 298.519531 C 36.398438 304.382812 31.019531 310.535156 27.445312 317.316406 C 23.675781 324.59375 24.5 329.433594 31.71875 333.074219 C 34.832031 334.25 38.292969 334.117188 41.679688 334.210938 C 45.613281 334.214844 49.628906 334.003906 53.644531 333.722656 C 69.792969 332.503906 85.957031 330.222656 102.007812 327.832031 C 174.449219 316.585938 246.65625 301.765625 318.417969 286.625 C 331.390625 283.578125 364.183594 274.507812 363.527344 258.527344 C 362.125 247.394531 350.308594 240.703125 341.164062 235.527344 C 319.71875 224.191406 296.480469 216.507812 273.332031 209.15625 C 242.222656 199.550781 210.570312 191.339844 178.820312 184.175781 C 177.230469 183.835938 176.21875 182.261719 176.574219 180.671875 C 176.925781 179.101562 178.480469 178.105469 180.054688 178.449219 C 212.09375 185.503906 243.808594 193.554688 275.207031 203.070312 C 298.742188 210.40625 322.382812 218.089844 344.375 229.582031 C 353.769531 234.769531 363.777344 240.660156 368.539062 250.984375 C 379.589844 276.984375 338.40625 289.039062 319.984375 293.4375 C 239.988281 310.296875 159.792969 327.394531 78.757812 338.589844 C 64.335938 340.25 49.8125 342.390625 35.1875 341.445312 C 32.773438 341.191406 30.089844 340.796875 27.875 339.546875 C 23.515625 337.269531 19.21875 333.460938 18.0625 328.242188 C 16.097656 318.710938 22.605469 310.097656 27.8125 303.058594 C 35.445312 293.308594 44.171875 284.445312 52.320312 275.296875 C 57.765625 269.121094 63.835938 263.289062 69.878906 257.699219 C 88.003906 241.058594 106.875 225.28125 125.886719 209.714844 C 138.597656 199.402344 151.480469 189.324219 164.761719 179.722656 C 167.820312 177.632812 171.167969 181.835938 168.378906 184.332031 Z M 168.378906 184.332031 " fill-opacity="1" fill-rule="nonzero"></path><path fill="#ff6f61" d="M 113.007812 95.152344 C 113.011719 75.941406 132.332031 54.597656 148.109375 45.109375 C 171.890625 30.4375 197.769531 34.496094 213.769531 58.066406 C 234.773438 91.207031 200.828125 125.59375 175.371094 144.03125 C 171.238281 147.003906 167.117188 149.757812 162.695312 152.347656 C 162.695312 152.347656 164.003906 149.414062 164.003906 149.414062 C 164.003906 149.414062 169.214844 181.558594 169.214844 181.558594 C 169.738281 185.328125 164.191406 186.351562 163.433594 182.496094 C 163.433594 182.496094 158.21875 150.351562 158.21875 150.351562 C 158.027344 149.171875 158.570312 148.042969 159.511719 147.429688 C 179.707031 132.015625 218.753906 97.894531 207.527344 69.652344 C 204.285156 61.8125 197.691406 55.042969 190.414062 50.945312 C 169.367188 39.804688 145.5 55.527344 131.523438 71.347656 C 125.765625 78.058594 119.867188 86.402344 118.863281 95.152344 C 118.65625 98.929688 113.195312 98.917969 113.007812 95.152344 Z M 113.007812 95.152344 " fill-opacity="1" fill-rule="nonzero"></path><path stroke-linecap="round" transform="matrix(0.818182, 0, 0, 0.818182, 306.685355, 62.126722)" fill="none" stroke-linejoin="round" d="M -13.699636 -31.264259 C -13.699636 -31.264259 -1.482187 -6.752973 -22.312483 13.595118 C -22.312483 13.595118 6.462258 8.438867 11.718768 31.264823 C 11.718768 31.264823 7.61764 -0.407921 22.312953 -11.10714 C 22.312953 -11.10714 4.891511 -3.272504 -13.699636 -31.264259 Z M -13.699636 -31.264259 " stroke="#ff6f61" stroke-width="4.441" stroke-opacity="1" stroke-miterlimit="4"></path><path stroke-linecap="round" transform="matrix(0.818182, 0, 0, 0.818182, 306.685355, 62.126722)" fill="none" stroke-linejoin="round" d="M -13.699636 -31.264259 C -13.699636 -31.264259 -1.482187 -6.752973 -22.312483 13.595118 C -22.312483 13.595118 6.462258 8.438867 11.718768 31.264823 C 11.718768 31.264823 7.61764 -0.407921 22.312953 -11.10714 C 22.312953 -11.10714 4.891511 -3.272504 -13.699636 -31.264259 Z M -13.699636 -31.264259 " stroke="#ff6f61" stroke-width="4.441" stroke-opacity="1" stroke-miterlimit="4"></path><path stroke-linecap="round" transform="matrix(0.818182, 0, 0, 0.818182, 272.700543, 140.00454)" fill="none" stroke-linejoin="round" d="M -13.374449 -37.794179 C -13.374449 -37.794179 0.848207 -3.619699 -32.495544 10.540892 C -32.495544 10.540892 3.898989 9.571708 13.495343 37.792629 C 13.495343 37.792629 0.800464 7.280041 32.49708 -12.208675 C 32.49708 -12.208675 -0.130525 0.223617 -13.374449 -37.794179 Z M -13.374449 -37.794179 " stroke="#ff6f61" stroke-width="4.25" stroke-opacity="1" stroke-miterlimit="4"></path><path stroke-linecap="round" transform="matrix(0.818182, 0, 0, 0.818182, 272.700543, 140.00454)" fill="none" stroke-linejoin="round" d="M -13.374449 -37.794179 C -13.374449 -37.794179 0.848207 -3.619699 -32.495544 10.540892 C -32.495544 10.540892 3.898989 9.571708 13.495343 37.792629 C 13.495343 37.792629 0.800464 7.280041 32.49708 -12.208675 C 32.49708 -12.208675 -0.130525 0.223617 -13.374449 -37.794179 Z M -13.374449 -37.794179 " stroke="#ff6f61" stroke-width="4.25" stroke-opacity="1" stroke-miterlimit="4"></path><path stroke-linecap="round" transform="matrix(0.818182, 0, 0, 0.818182, 36.805637, 152.681445)" fill="none" stroke-linejoin="round" d="M -13.292828 -40.297289 C -13.292828 -40.297289 -0.0680007 2.184484 -35.612707 17.280839 C -35.612707 17.280839 5.126444 10.205317 15.357781 40.297766 C 15.357781 40.297766 1.81785 7.765647 35.61516 -13.016906 C 35.61516 -13.016906 0.824794 0.236567 -13.292828 -40.297289 Z M -13.292828 -40.297289 " stroke="#ff6f61" stroke-width="4.531" stroke-opacity="1" stroke-miterlimit="4"></path></svg><style>@media (prefers-color-scheme: light) { :root { filter: contrast(1) brightness(0.4); } }
@media (prefers-color-scheme: dark) { :root { filter: contrast(0.9090909090909091) brightness(1.5); } }
</style></svg>