<?xml version="1.0" standalone="no"?>
<!DOCTYPE svg PUBLIC "-//W3C//DTD SVG 20010904//EN"
 "http://www.w3.org/TR/2001/REC-SVG-20010904/DTD/svg10.dtd">
<svg version="1.0" xmlns="http://www.w3.org/2000/svg"
 width="714.000000pt" height="714.000000pt" viewBox="0 0 714.000000 714.000000"
 preserveAspectRatio="xMidYMid meet">
<metadata>
Created by potrace 1.14, written by Peter Selinger 2001-2017
</metadata>
<g transform="translate(0.000000,714.000000) scale(0.100000,-0.100000)"
fill="#000000" stroke="none">
<path d="M4980 6879 c-77 -12 -93 -16 -155 -37 -185 -62 -320 -156 -404 -282
-65 -97 -76 -133 -76 -245 0 -111 10 -146 68 -237 31 -48 162 -227 185 -253 5
-6 38 -49 73 -95 35 -47 67 -87 70 -90 3 -3 30 -41 59 -85 30 -44 57 -82 60
-85 25 -23 127 -233 148 -305 47 -155 48 -262 7 -459 -3 -16 -11 -39 -17 -50
-6 -12 -10 -21 -7 -21 9 0 -37 -103 -60 -135 -49 -65 -66 -82 -121 -115 -117
-70 -221 -90 -450 -89 -144 1 -200 5 -290 20 -19 3 -46 8 -60 10 -42 7 -109
23 -235 54 -66 17 -124 32 -130 33 -5 1 -16 6 -22 10 -7 5 -13 6 -13 3 0 -3
-12 -1 -27 5 -16 6 -37 13 -47 15 -32 6 -209 65 -244 81 -24 10 -32 20 -29 31
3 10 21 63 41 120 41 117 88 286 102 367 3 17 10 50 14 75 5 25 8 93 7 152 -2
91 -5 111 -23 135 -65 87 -187 -4 -336 -252 -36 -60 -140 -261 -144 -280 -2
-5 -19 -46 -38 -90 -40 -89 -44 -91 -118 -55 -23 11 -48 20 -55 20 -7 0 -13 5
-13 10 0 6 -6 10 -12 10 -14 0 -251 133 -268 150 -3 3 -27 23 -55 45 -43 34
-135 117 -169 152 -56 58 -114 125 -172 199 -108 138 -117 147 -147 147 -38 0
-67 -30 -67 -66 0 -21 15 -50 47 -91 26 -34 50 -63 53 -66 3 -3 13 -15 21 -27
24 -34 153 -176 217 -237 145 -138 280 -230 494 -334 149 -73 157 -78 151
-102 -3 -14 -9 -29 -13 -35 -4 -5 -10 -21 -12 -35 -3 -14 -17 -65 -32 -114
-14 -48 -28 -98 -31 -110 -2 -11 -7 -32 -10 -46 -12 -53 -35 -177 -41 -225 -3
-27 -19 -86 -34 -130 -49 -137 -80 -219 -94 -250 -8 -16 -21 -55 -31 -85 -10
-30 -21 -59 -24 -65 -4 -5 -13 -28 -20 -50 -7 -22 -16 -49 -21 -60 -5 -11 -28
-69 -50 -130 -22 -60 -44 -119 -49 -130 -24 -55 -166 -451 -164 -457 2 -5 -1
-8 -5 -8 -5 0 -9 -6 -9 -12 0 -7 -23 -74 -51 -148 -28 -74 -57 -153 -65 -175
-126 -346 -165 -454 -236 -655 -29 -80 -56 -155 -61 -166 -4 -12 -30 -84 -56
-160 -26 -77 -51 -150 -57 -164 -6 -14 -11 -29 -13 -35 -2 -5 -55 -163 -118
-350 -126 -373 -227 -695 -217 -695 5 0 65 107 67 120 0 3 26 58 57 123 31 65
57 120 57 122 0 5 88 196 105 228 8 16 15 32 15 37 0 5 14 39 31 77 50 110 54
120 137 313 156 365 177 415 174 423 -1 4 3 7 8 7 6 0 10 5 10 12 0 10 99 256
130 323 11 23 27 66 30 80 1 6 8 21 16 35 19 35 46 102 51 125 2 10 8 22 14
26 6 3 10 8 9 10 -2 5 8 36 20 64 5 11 25 61 45 110 20 50 42 104 50 120 7 17
25 62 40 100 15 39 33 84 41 100 7 17 31 77 54 135 23 58 48 119 55 135 7 17
21 50 31 75 9 25 21 49 26 55 4 5 8 15 8 23 0 8 6 28 14 45 8 18 47 113 86
212 40 99 78 194 85 210 7 17 39 95 70 175 32 79 74 169 95 200 95 139 280
483 280 519 0 23 24 20 122 -14 164 -58 467 -143 568 -160 19 -3 43 -8 52 -11
22 -6 44 -11 98 -18 25 -3 55 -8 68 -10 125 -25 455 -25 534 0 10 3 30 7 45
10 144 25 319 148 389 274 26 46 73 165 65 165 -1 0 2 12 8 28 24 64 35 148
35 277 1 144 -9 201 -59 339 -53 146 -144 293 -349 561 -69 91 -134 176 -146
190 -53 65 -128 190 -140 233 -27 99 13 204 115 302 34 33 84 71 111 85 27 14
51 28 54 31 6 8 117 48 149 55 14 3 27 7 31 9 10 6 121 18 175 18 97 0 205
-19 285 -51 14 -5 30 -11 35 -12 6 -1 22 -11 37 -21 14 -10 29 -19 33 -19 30
0 178 -134 242 -220 95 -127 211 -356 239 -475 3 -11 8 -31 12 -45 12 -48 8
-186 -7 -216 -25 -50 -78 -93 -136 -109 -52 -16 -165 -21 -215 -10 -75 15
-159 38 -187 51 -17 8 -33 14 -36 14 -3 0 -38 16 -79 34 -80 38 -97 39 -128
11 -27 -24 -26 -66 3 -92 42 -39 258 -125 372 -148 71 -15 236 -13 293 3 203
56 293 216 257 456 -27 178 -145 431 -289 620 -89 117 -243 239 -361 286 -33
13 -64 26 -70 30 -5 4 -23 10 -40 13 -16 3 -52 11 -80 17 -59 14 -251 20 -315
9z m-1655 -1629 c16 -51 -43 -295 -132 -540 -25 -69 -47 -126 -48 -128 -2 -3
-167 57 -173 63 -2 2 5 24 17 49 11 25 17 46 14 46 -3 0 1 7 8 16 7 9 14 21
15 28 4 27 142 309 186 381 38 61 78 105 94 105 7 0 16 -9 19 -20z m-375 -745
c0 4 6 3 13 -2 6 -5 38 -18 70 -28 31 -11 57 -23 57 -27 0 -9 -36 -89 -93
-208 -89 -186 -168 -300 -199 -287 -25 9 -14 103 31 272 12 44 23 85 24 90 5
19 39 120 54 163 13 34 18 40 29 31 8 -6 14 -8 14 -4z"/>
</g>
</svg>
