<svg xmlns="http://www.w3.org/2000/svg" xmlns:xlink="http://www.w3.org/1999/xlink" zoomAndPan="magnify" preserveAspectRatio="xMidYMid meet" version="1.0" viewBox="1.38 143 369.18 81.6"><defs><g/></defs><g fill="#2d3a66" fill-opacity="1"><g transform="translate(-1.099441, 209.720026)"><g><path d="M 37.921875 -48.59375 L 37.921875 -36.171875 L 27.609375 -36.171875 L 27.609375 -17.671875 C 27.609375 -15.460938 27.972656 -13.847656 28.703125 -12.828125 C 29.441406 -11.816406 30.796875 -11.3125 32.765625 -11.3125 L 37.921875 -11.3125 L 37.921875 -0.546875 C 36.441406 -0.0546875 34.535156 0.335938 32.203125 0.640625 C 29.878906 0.953125 27.859375 1.109375 26.140625 1.109375 C 20.734375 1.109375 16.570312 0.128906 13.65625 -1.828125 C 10.75 -3.796875 9.296875 -7.144531 9.296875 -11.875 L 9.296875 -36.171875 L 2.484375 -36.171875 L 2.484375 -48.59375 L 10.03125 -48.59375 L 13.984375 -63.3125 L 27.609375 -63.3125 L 27.609375 -48.59375 Z M 37.921875 -48.59375 "/></g></g></g><g fill="#2d3a66" fill-opacity="1"><g transform="translate(34.509752, 209.720026)"><g><path d="M 29.546875 -49.703125 C 36.960938 -49.703125 43.003906 -48.457031 47.671875 -45.96875 C 52.335938 -43.488281 54.671875 -39.457031 54.671875 -33.875 L 54.671875 -14.90625 C 54.671875 -13.863281 54.914062 -13.003906 55.40625 -12.328125 C 55.894531 -11.648438 56.628906 -11.3125 57.609375 -11.3125 L 60.921875 -11.3125 L 60.921875 -0.734375 C 60.742188 -0.609375 60.269531 -0.40625 59.5 -0.125 C 58.726562 0.144531 57.632812 0.414062 56.21875 0.6875 C 54.8125 0.96875 53.191406 1.109375 51.359375 1.109375 C 47.796875 1.109375 44.863281 0.570312 42.5625 -0.5 C 40.257812 -1.570312 38.679688 -3.0625 37.828125 -4.96875 C 35.492188 -3.125 32.882812 -1.648438 30 -0.546875 C 27.113281 0.554688 23.738281 1.109375 19.875 1.109375 C 8.46875 1.109375 2.765625 -3.429688 2.765625 -12.515625 C 2.765625 -17.242188 4.035156 -20.847656 6.578125 -23.328125 C 9.128906 -25.816406 12.796875 -27.519531 17.578125 -28.4375 C 22.359375 -29.351562 28.617188 -29.8125 36.359375 -29.8125 L 36.359375 -32.203125 C 36.359375 -34.109375 35.695312 -35.550781 34.375 -36.53125 C 33.050781 -37.519531 31.347656 -38.015625 29.265625 -38.015625 C 27.359375 -38.015625 25.710938 -37.675781 24.328125 -37 C 22.953125 -36.320312 22.265625 -35.25 22.265625 -33.78125 L 22.265625 -33.40625 L 4.234375 -33.40625 C 4.171875 -33.71875 4.140625 -34.148438 4.140625 -34.703125 C 4.140625 -39.296875 6.332031 -42.941406 10.71875 -45.640625 C 15.101562 -48.347656 21.378906 -49.703125 29.546875 -49.703125 Z M 36.359375 -21.171875 C 31.140625 -21.171875 27.285156 -20.601562 24.796875 -19.46875 C 22.316406 -18.332031 21.078125 -16.8125 21.078125 -14.90625 C 21.078125 -11.84375 23.160156 -10.3125 27.328125 -10.3125 C 29.722656 -10.3125 31.828125 -10.953125 33.640625 -12.234375 C 35.453125 -13.523438 36.359375 -15.125 36.359375 -17.03125 Z M 36.359375 -21.171875 "/></g></g></g><g fill="#2d3a66" fill-opacity="1"><g transform="translate(90.638441, 209.720026)"><g><path d="M 6.171875 -54.296875 L 6.171875 -66.71875 L 24.484375 -66.71875 L 24.484375 -54.296875 Z M 6.171875 0 L 6.171875 -48.59375 L 24.484375 -48.59375 L 24.484375 0 Z M 6.171875 0 "/></g></g></g><g fill="#2d3a66" fill-opacity="1"><g transform="translate(116.033898, 209.720026)"><g><path d="M 6.171875 0 L 6.171875 -66.71875 L 24.484375 -66.71875 L 24.484375 0 Z M 6.171875 0 "/></g></g></g><g fill="#2d3a66" fill-opacity="1"><g transform="translate(141.429354, 209.720026)"><g><path d="M 30.640625 -49.703125 C 39.171875 -49.703125 45.875 -47.535156 50.75 -43.203125 C 55.632812 -38.878906 58.078125 -32.578125 58.078125 -24.296875 C 58.078125 -16.015625 55.632812 -9.707031 50.75 -5.375 C 45.875 -1.050781 39.171875 1.109375 30.640625 1.109375 C 22.117188 1.109375 15.429688 -1.035156 10.578125 -5.328125 C 5.734375 -9.628906 3.3125 -15.953125 3.3125 -24.296875 C 3.3125 -32.640625 5.734375 -38.957031 10.578125 -43.25 C 15.429688 -47.550781 22.117188 -49.703125 30.640625 -49.703125 Z M 30.640625 -37.265625 C 24.628906 -37.265625 21.625 -33.800781 21.625 -26.875 L 21.625 -21.625 C 21.625 -14.75 24.628906 -11.3125 30.640625 -11.3125 C 36.710938 -11.3125 39.75 -14.75 39.75 -21.625 L 39.75 -26.875 C 39.75 -33.800781 36.710938 -37.265625 30.640625 -37.265625 Z M 30.640625 -37.265625 "/></g></g></g><g fill="#2d3a66" fill-opacity="1"><g transform="translate(197.558032, 209.720026)"><g><path d="M 35.0625 -49.78125 C 36.476562 -49.78125 37.738281 -49.613281 38.84375 -49.28125 C 39.945312 -48.945312 40.5 -48.75 40.5 -48.6875 L 40.5 -33.3125 L 34.609375 -33.3125 C 30.796875 -33.3125 28.046875 -32.328125 26.359375 -30.359375 C 24.679688 -28.398438 23.84375 -25.488281 23.84375 -21.625 L 23.84375 0 L 5.515625 0 L 5.515625 -48.59375 L 20.515625 -48.59375 L 21.71875 -41.234375 C 22.820312 -44.054688 24.566406 -46.1875 26.953125 -47.625 C 29.347656 -49.0625 32.050781 -49.78125 35.0625 -49.78125 Z M 35.0625 -49.78125 "/></g></g></g><g fill="#2d3a66" fill-opacity="1"><g transform="translate(233.167237, 209.720026)"><g><path d="M 30.640625 -49.703125 C 39.535156 -49.703125 46.332031 -47.613281 51.03125 -43.4375 C 55.726562 -39.269531 58.078125 -32.890625 58.078125 -24.296875 L 58.078125 -21.171875 L 21.625 -21.171875 C 21.625 -17.671875 22.40625 -15.03125 23.96875 -13.25 C 25.539062 -11.46875 28.007812 -10.578125 31.375 -10.578125 C 34.445312 -10.578125 36.703125 -11.222656 38.140625 -12.515625 C 39.585938 -13.804688 40.3125 -15.523438 40.3125 -17.671875 L 58.078125 -17.671875 C 58.078125 -11.773438 55.835938 -7.171875 51.359375 -3.859375 C 46.878906 -0.546875 40.34375 1.109375 31.75 1.109375 C 22.726562 1.109375 15.734375 -0.988281 10.765625 -5.1875 C 5.796875 -9.394531 3.3125 -15.765625 3.3125 -24.296875 C 3.3125 -32.640625 5.734375 -38.957031 10.578125 -43.25 C 15.429688 -47.550781 22.117188 -49.703125 30.640625 -49.703125 Z M 31.375 -38.015625 C 25.613281 -38.015625 22.394531 -35.28125 21.71875 -29.8125 L 39.578125 -29.8125 C 39.578125 -32.332031 38.851562 -34.328125 37.40625 -35.796875 C 35.96875 -37.273438 33.957031 -38.015625 31.375 -38.015625 Z M 31.375 -38.015625 "/></g></g></g><g fill="#2d3a66" fill-opacity="1"><g transform="translate(289.295926, 209.720026)"><g><path d="M 40.859375 0 L 39.296875 -6.90625 C 35.734375 -1.5625 30.582031 1.109375 23.84375 1.109375 C 17.269531 1.109375 12.203125 -1.035156 8.640625 -5.328125 C 5.085938 -9.628906 3.3125 -15.984375 3.3125 -24.390625 C 3.3125 -32.734375 5.085938 -39.035156 8.640625 -43.296875 C 12.203125 -47.566406 17.269531 -49.703125 23.84375 -49.703125 C 29.414062 -49.703125 33.953125 -47.828125 37.453125 -44.078125 L 37.453125 -66.71875 L 55.765625 -66.71875 L 55.765625 0 Z M 29.546875 -36.171875 C 24.265625 -36.171875 21.625 -33.007812 21.625 -26.6875 L 21.625 -21.8125 C 21.625 -15.550781 24.265625 -12.421875 29.546875 -12.421875 C 32.242188 -12.421875 34.265625 -13.367188 35.609375 -15.265625 C 36.960938 -17.171875 37.640625 -19.660156 37.640625 -22.734375 L 37.640625 -25.765625 C 37.640625 -28.835938 36.960938 -31.335938 35.609375 -33.265625 C 34.265625 -35.203125 32.242188 -36.171875 29.546875 -36.171875 Z M 29.546875 -36.171875 "/></g></g></g><g fill="#ff6f61" fill-opacity="1"><g transform="translate(345.435696, 209.720026)"><g><path d="M 5.609375 0 L 5.609375 -18.3125 L 25.125 -18.3125 L 25.125 0 Z M 5.609375 0 "/></g></g></g><g fill="#ff6f61" fill-opacity="1"><g transform="translate(134.528137, 224.401686)"><g><path d="M 7.0625 -9.890625 C 7.726562 -9.816406 8.320312 -9.617188 8.84375 -9.296875 C 9.363281 -8.984375 9.773438 -8.53125 10.078125 -7.9375 C 10.378906 -7.34375 10.53125 -6.601562 10.53125 -5.71875 C 10.53125 -4.757812 10.335938 -3.867188 9.953125 -3.046875 C 9.578125 -2.222656 9.003906 -1.546875 8.234375 -1.015625 C 7.460938 -0.484375 6.5 -0.160156 5.34375 -0.046875 C 5.082031 -0.0234375 4.867188 -0.0078125 4.703125 0 C 4.535156 0 4.316406 0 4.046875 0 L 0.296875 0 L 2.0625 -9.953125 L 5.6875 -9.953125 C 5.945312 -9.953125 6.179688 -9.945312 6.390625 -9.9375 C 6.597656 -9.9375 6.820312 -9.921875 7.0625 -9.890625 Z M 5.078125 -2.046875 C 5.703125 -2.109375 6.210938 -2.304688 6.609375 -2.640625 C 7.015625 -2.984375 7.3125 -3.414062 7.5 -3.9375 C 7.6875 -4.46875 7.78125 -5.039062 7.78125 -5.65625 C 7.78125 -6.40625 7.632812 -6.953125 7.34375 -7.296875 C 7.050781 -7.648438 6.632812 -7.851562 6.09375 -7.90625 C 5.9375 -7.925781 5.789062 -7.9375 5.65625 -7.9375 C 5.519531 -7.9375 5.351562 -7.9375 5.15625 -7.9375 L 4.296875 -7.9375 L 3.265625 -2.015625 L 4.140625 -2.015625 C 4.328125 -2.015625 4.488281 -2.015625 4.625 -2.015625 C 4.757812 -2.023438 4.910156 -2.035156 5.078125 -2.046875 Z M 5.078125 -2.046875 "/></g></g></g><g fill="#ff6f61" fill-opacity="1"><g transform="translate(144.777018, 224.401686)"><g><path d="M 9.84375 -7.703125 C 9.84375 -6.160156 8.992188 -5.171875 7.296875 -4.734375 C 7.742188 -4.535156 8.050781 -4.210938 8.21875 -3.765625 C 8.394531 -3.316406 8.484375 -2.703125 8.484375 -1.921875 C 8.484375 -1.503906 8.507812 -1.140625 8.5625 -0.828125 C 8.625 -0.515625 8.707031 -0.238281 8.8125 0 L 5.984375 0 C 5.941406 -0.269531 5.914062 -0.5625 5.90625 -0.875 C 5.894531 -1.195312 5.890625 -1.640625 5.890625 -2.203125 C 5.890625 -2.679688 5.8125 -3.054688 5.65625 -3.328125 C 5.5 -3.597656 5.269531 -3.742188 4.96875 -3.765625 C 4.820312 -3.773438 4.6875 -3.78125 4.5625 -3.78125 C 4.4375 -3.78125 4.300781 -3.78125 4.15625 -3.78125 L 3.5625 -3.78125 L 2.90625 0 L 0.296875 0 L 2.0625 -9.953125 L 6.015625 -9.953125 C 6.316406 -9.953125 6.582031 -9.945312 6.8125 -9.9375 C 7.050781 -9.925781 7.300781 -9.90625 7.5625 -9.875 C 7.976562 -9.832031 8.359375 -9.726562 8.703125 -9.5625 C 9.054688 -9.394531 9.332031 -9.160156 9.53125 -8.859375 C 9.738281 -8.554688 9.84375 -8.171875 9.84375 -7.703125 Z M 3.890625 -5.65625 L 4.84375 -5.65625 C 4.976562 -5.65625 5.101562 -5.65625 5.21875 -5.65625 C 5.332031 -5.65625 5.4375 -5.660156 5.53125 -5.671875 C 5.789062 -5.691406 6.035156 -5.742188 6.265625 -5.828125 C 6.492188 -5.910156 6.675781 -6.046875 6.8125 -6.234375 C 6.957031 -6.421875 7.03125 -6.6875 7.03125 -7.03125 C 7.03125 -7.351562 6.929688 -7.578125 6.734375 -7.703125 C 6.535156 -7.828125 6.289062 -7.898438 6 -7.921875 C 5.90625 -7.929688 5.800781 -7.9375 5.6875 -7.9375 C 5.570312 -7.9375 5.445312 -7.9375 5.3125 -7.9375 L 4.296875 -7.9375 Z M 3.890625 -5.65625 "/></g></g></g><g fill="#ff6f61" fill-opacity="1"><g transform="translate(153.944743, 224.401686)"><g><path d="M 4.296875 -7.9375 L 3.96875 -6 L 8.5625 -6 L 8.203125 -3.984375 L 3.609375 -3.984375 L 3.265625 -2.015625 L 8.296875 -2.015625 L 7.9375 0 L 0.296875 0 L 2.0625 -9.953125 L 9.546875 -9.953125 L 9.1875 -7.9375 Z M 4.296875 -7.9375 "/></g></g></g><g fill="#ff6f61" fill-opacity="1"><g transform="translate(162.550267, 224.401686)"><g><path d="M 5.484375 -10.15625 C 6.359375 -10.15625 7.054688 -10.007812 7.578125 -9.71875 C 8.097656 -9.425781 8.472656 -9.03125 8.703125 -8.53125 C 8.929688 -8.039062 9.023438 -7.488281 8.984375 -6.875 L 6.390625 -6.875 C 6.410156 -7.289062 6.328125 -7.625 6.140625 -7.875 C 5.960938 -8.125 5.660156 -8.25 5.234375 -8.25 C 4.898438 -8.25 4.617188 -8.160156 4.390625 -7.984375 C 4.160156 -7.804688 4.046875 -7.546875 4.046875 -7.203125 C 4.046875 -6.929688 4.179688 -6.695312 4.453125 -6.5 C 4.734375 -6.300781 5.222656 -6.113281 5.921875 -5.9375 C 6.835938 -5.71875 7.5 -5.375 7.90625 -4.90625 C 8.3125 -4.445312 8.515625 -3.90625 8.515625 -3.28125 C 8.515625 -2.707031 8.390625 -2.203125 8.140625 -1.765625 C 7.898438 -1.328125 7.566406 -0.960938 7.140625 -0.671875 C 6.710938 -0.378906 6.226562 -0.160156 5.6875 -0.015625 C 5.15625 0.128906 4.601562 0.203125 4.03125 0.203125 C 3.226562 0.203125 2.523438 0.0859375 1.921875 -0.140625 C 1.328125 -0.367188 0.875 -0.722656 0.5625 -1.203125 C 0.25 -1.691406 0.132812 -2.304688 0.21875 -3.046875 L 2.8125 -3.046875 C 2.8125 -2.578125 2.960938 -2.234375 3.265625 -2.015625 C 3.566406 -1.804688 3.910156 -1.703125 4.296875 -1.703125 C 4.691406 -1.703125 5.03125 -1.800781 5.3125 -2 C 5.59375 -2.195312 5.734375 -2.453125 5.734375 -2.765625 C 5.734375 -2.984375 5.625 -3.195312 5.40625 -3.40625 C 5.1875 -3.625 4.816406 -3.800781 4.296875 -3.9375 C 3.335938 -4.1875 2.59375 -4.507812 2.0625 -4.90625 C 1.53125 -5.3125 1.265625 -5.890625 1.265625 -6.640625 C 1.265625 -7.203125 1.378906 -7.703125 1.609375 -8.140625 C 1.847656 -8.578125 2.164062 -8.941406 2.5625 -9.234375 C 2.957031 -9.535156 3.40625 -9.765625 3.90625 -9.921875 C 4.40625 -10.078125 4.929688 -10.15625 5.484375 -10.15625 Z M 5.484375 -10.15625 "/></g></g></g><g fill="#ff6f61" fill-opacity="1"><g transform="translate(171.141379, 224.401686)"><g><path d="M 5.484375 -10.15625 C 6.359375 -10.15625 7.054688 -10.007812 7.578125 -9.71875 C 8.097656 -9.425781 8.472656 -9.03125 8.703125 -8.53125 C 8.929688 -8.039062 9.023438 -7.488281 8.984375 -6.875 L 6.390625 -6.875 C 6.410156 -7.289062 6.328125 -7.625 6.140625 -7.875 C 5.960938 -8.125 5.660156 -8.25 5.234375 -8.25 C 4.898438 -8.25 4.617188 -8.160156 4.390625 -7.984375 C 4.160156 -7.804688 4.046875 -7.546875 4.046875 -7.203125 C 4.046875 -6.929688 4.179688 -6.695312 4.453125 -6.5 C 4.734375 -6.300781 5.222656 -6.113281 5.921875 -5.9375 C 6.835938 -5.71875 7.5 -5.375 7.90625 -4.90625 C 8.3125 -4.445312 8.515625 -3.90625 8.515625 -3.28125 C 8.515625 -2.707031 8.390625 -2.203125 8.140625 -1.765625 C 7.898438 -1.328125 7.566406 -0.960938 7.140625 -0.671875 C 6.710938 -0.378906 6.226562 -0.160156 5.6875 -0.015625 C 5.15625 0.128906 4.601562 0.203125 4.03125 0.203125 C 3.226562 0.203125 2.523438 0.0859375 1.921875 -0.140625 C 1.328125 -0.367188 0.875 -0.722656 0.5625 -1.203125 C 0.25 -1.691406 0.132812 -2.304688 0.21875 -3.046875 L 2.8125 -3.046875 C 2.8125 -2.578125 2.960938 -2.234375 3.265625 -2.015625 C 3.566406 -1.804688 3.910156 -1.703125 4.296875 -1.703125 C 4.691406 -1.703125 5.03125 -1.800781 5.3125 -2 C 5.59375 -2.195312 5.734375 -2.453125 5.734375 -2.765625 C 5.734375 -2.984375 5.625 -3.195312 5.40625 -3.40625 C 5.1875 -3.625 4.816406 -3.800781 4.296875 -3.9375 C 3.335938 -4.1875 2.59375 -4.507812 2.0625 -4.90625 C 1.53125 -5.3125 1.265625 -5.890625 1.265625 -6.640625 C 1.265625 -7.203125 1.378906 -7.703125 1.609375 -8.140625 C 1.847656 -8.578125 2.164062 -8.941406 2.5625 -9.234375 C 2.957031 -9.535156 3.40625 -9.765625 3.90625 -9.921875 C 4.40625 -10.078125 4.929688 -10.15625 5.484375 -10.15625 Z M 5.484375 -10.15625 "/></g></g></g><g fill="#ff6f61" fill-opacity="1"><g transform="translate(179.73249, 224.401686)"><g/></g></g><g fill="#ff6f61" fill-opacity="1"><g transform="translate(181.130366, 224.401686)"><g><path d="M 8.328125 -2.1875 L 7.9375 0 L 0.296875 0 L 2.0625 -9.953125 L 4.65625 -9.953125 L 3.28125 -2.1875 Z M 8.328125 -2.1875 "/></g></g></g><g fill="#ff6f61" fill-opacity="1"><g transform="translate(189.562917, 224.401686)"><g><path d="M 2.90625 0 L 0.296875 0 L 2.0625 -9.953125 L 4.65625 -9.953125 Z M 2.90625 0 "/></g></g></g><g fill="#ff6f61" fill-opacity="1"><g transform="translate(193.526713, 224.401686)"><g><path d="M 6.28125 -5.15625 L 9.65625 0 L 6.453125 0 L 4.265625 -3.84375 L 3.4375 -3.0625 L 2.90625 0 L 0.296875 0 L 2.0625 -9.953125 L 4.65625 -9.953125 L 3.875 -5.546875 L 8.453125 -9.953125 L 11.546875 -9.953125 Z M 6.28125 -5.15625 "/></g></g></g><g fill="#ff6f61" fill-opacity="1"><g transform="translate(203.386383, 224.401686)"><g><path d="M 4.296875 -7.9375 L 3.96875 -6 L 8.5625 -6 L 8.203125 -3.984375 L 3.609375 -3.984375 L 3.265625 -2.015625 L 8.296875 -2.015625 L 7.9375 0 L 0.296875 0 L 2.0625 -9.953125 L 9.546875 -9.953125 L 9.1875 -7.9375 Z M 4.296875 -7.9375 "/></g></g></g><g fill="#ff6f61" fill-opacity="1"><g transform="translate(211.991909, 224.401686)"><g/></g></g><g fill="#ff6f61" fill-opacity="1"><g transform="translate(213.389784, 224.401686)"><g><path d="M 6.4375 -3.734375 L 5.765625 0 L 3.171875 0 L 3.84375 -3.828125 L 1.421875 -9.953125 L 4.203125 -9.953125 L 5.5625 -5.96875 L 8.15625 -9.953125 L 11.03125 -9.953125 Z M 6.4375 -3.734375 "/></g></g></g><g fill="#ff6f61" fill-opacity="1"><g transform="translate(222.788159, 224.401686)"><g><path d="M 6.734375 -10.15625 C 7.753906 -10.15625 8.617188 -9.96875 9.328125 -9.59375 C 10.035156 -9.21875 10.570312 -8.703125 10.9375 -8.046875 C 11.3125 -7.398438 11.5 -6.664062 11.5 -5.84375 C 11.5 -4.90625 11.347656 -4.0625 11.046875 -3.3125 C 10.742188 -2.5625 10.328125 -1.925781 9.796875 -1.40625 C 9.273438 -0.894531 8.660156 -0.5 7.953125 -0.21875 C 7.253906 0.0625 6.503906 0.203125 5.703125 0.203125 C 4.691406 0.203125 3.828125 0.015625 3.109375 -0.359375 C 2.398438 -0.734375 1.859375 -1.25 1.484375 -1.90625 C 1.117188 -2.5625 0.9375 -3.296875 0.9375 -4.109375 C 0.9375 -5.054688 1.082031 -5.898438 1.375 -6.640625 C 1.675781 -7.390625 2.09375 -8.019531 2.625 -8.53125 C 3.15625 -9.050781 3.769531 -9.453125 4.46875 -9.734375 C 5.175781 -10.015625 5.929688 -10.15625 6.734375 -10.15625 Z M 5.78125 -1.703125 C 6.28125 -1.703125 6.71875 -1.820312 7.09375 -2.0625 C 7.46875 -2.3125 7.773438 -2.632812 8.015625 -3.03125 C 8.265625 -3.4375 8.445312 -3.878906 8.5625 -4.359375 C 8.6875 -4.835938 8.75 -5.304688 8.75 -5.765625 C 8.75 -6.492188 8.570312 -7.085938 8.21875 -7.546875 C 7.863281 -8.015625 7.34375 -8.25 6.65625 -8.25 C 6.15625 -8.25 5.71875 -8.125 5.34375 -7.875 C 4.96875 -7.632812 4.65625 -7.3125 4.40625 -6.90625 C 4.15625 -6.507812 3.96875 -6.070312 3.84375 -5.59375 C 3.726562 -5.113281 3.671875 -4.644531 3.671875 -4.1875 C 3.671875 -3.457031 3.847656 -2.859375 4.203125 -2.390625 C 4.566406 -1.929688 5.09375 -1.703125 5.78125 -1.703125 Z M 5.78125 -1.703125 "/></g></g></g><g fill="#ff6f61" fill-opacity="1"><g transform="translate(233.988451, 224.401686)"><g><path d="M 10.890625 -9.953125 L 9.96875 -4.65625 C 9.90625 -4.332031 9.851562 -4.066406 9.8125 -3.859375 C 9.78125 -3.660156 9.722656 -3.410156 9.640625 -3.109375 C 9.492188 -2.472656 9.242188 -1.90625 8.890625 -1.40625 C 8.535156 -0.90625 8.039062 -0.507812 7.40625 -0.21875 C 6.78125 0.0625 5.960938 0.203125 4.953125 0.203125 C 4.023438 0.203125 3.265625 0.0703125 2.671875 -0.1875 C 2.078125 -0.445312 1.632812 -0.796875 1.34375 -1.234375 C 1.050781 -1.671875 0.90625 -2.164062 0.90625 -2.71875 C 0.90625 -2.976562 0.921875 -3.253906 0.953125 -3.546875 C 0.992188 -3.835938 1.0625 -4.253906 1.15625 -4.796875 L 2.0625 -9.953125 L 4.65625 -9.953125 L 3.59375 -3.890625 C 3.5625 -3.734375 3.535156 -3.585938 3.515625 -3.453125 C 3.503906 -3.328125 3.5 -3.195312 3.5 -3.0625 C 3.5 -2.613281 3.660156 -2.273438 3.984375 -2.046875 C 4.304688 -1.816406 4.691406 -1.703125 5.140625 -1.703125 C 5.648438 -1.703125 6.066406 -1.8125 6.390625 -2.03125 C 6.710938 -2.257812 6.953125 -2.679688 7.109375 -3.296875 C 7.128906 -3.390625 7.148438 -3.476562 7.171875 -3.5625 C 7.191406 -3.644531 7.207031 -3.753906 7.21875 -3.890625 L 8.296875 -9.953125 Z M 10.890625 -9.953125 "/></g></g></g><g fill="#ff6f61" fill-opacity="1"><g transform="translate(243.905783, 224.401686)"><g/></g></g><g fill="#ff6f61" fill-opacity="1"><g transform="translate(245.303658, 224.401686)"><g><path d="M 13.4375 -9.953125 L 11.6875 0 L 9.078125 0 L 10.390625 -7.296875 L 7.5 0 L 4.484375 0 L 4.171875 -7.296875 L 2.90625 0 L 0.296875 0 L 2.0625 -9.953125 L 6.28125 -9.953125 L 6.515625 -2.796875 L 9.109375 -9.953125 Z M 13.4375 -9.953125 "/></g></g></g><g fill="#ff6f61" fill-opacity="1"><g transform="translate(258.046389, 224.401686)"><g><path d="M 4.296875 -7.9375 L 3.96875 -6 L 8.5625 -6 L 8.203125 -3.984375 L 3.609375 -3.984375 L 3.265625 -2.015625 L 8.296875 -2.015625 L 7.9375 0 L 0.296875 0 L 2.0625 -9.953125 L 9.546875 -9.953125 L 9.1875 -7.9375 Z M 4.296875 -7.9375 "/></g></g></g><g fill="#ff6f61" fill-opacity="1"><g transform="translate(266.651915, 224.401686)"><g><path d="M 6.53125 -2.578125 L 3.40625 -2.578125 L 2.140625 0 L -0.625 0 L 4.625 -9.953125 L 7.984375 -9.953125 L 9.734375 0 L 6.90625 0 Z M 6.25 -4.59375 L 5.828125 -7.546875 L 4.390625 -4.59375 Z M 6.25 -4.59375 "/></g></g></g><g fill="#ff6f61" fill-opacity="1"><g transform="translate(276.396247, 224.401686)"><g><path d="M 11.578125 -9.953125 L 9.828125 0 L 6.4375 0 L 4.046875 -6.59375 L 2.90625 0 L 0.296875 0 L 2.0625 -9.953125 L 5.296875 -9.953125 L 7.78125 -3.078125 L 8.984375 -9.953125 Z M 11.578125 -9.953125 "/></g></g></g><g fill="#ff6f61" fill-opacity="1"><g transform="translate(287.279403, 224.401686)"><g/></g></g><g fill="#ff6f61" fill-opacity="1"><g transform="translate(288.677278, 224.401686)"><g><path d="M 2.90625 0 L 0.296875 0 L 2.0625 -9.953125 L 4.65625 -9.953125 Z M 2.90625 0 "/></g></g></g><g fill="#ff6f61" fill-opacity="1"><g transform="translate(292.641074, 224.401686)"><g><path d="M 9.96875 -7.9375 L 6.75 -7.9375 L 5.34375 0 L 2.75 0 L 4.15625 -7.9375 L 0.90625 -7.9375 L 1.28125 -9.953125 L 10.34375 -9.953125 Z M 9.96875 -7.9375 "/></g></g></g></svg>