<svg xmlns="http://www.w3.org/2000/svg" xmlns:xlink="http://www.w3.org/1999/xlink" zoomAndPan="magnify" preserveAspectRatio="xMidYMid meet" version="1.0" viewBox="1.38 143 369.18 67.83"><defs><g/></defs><g fill="#2d3a66" fill-opacity="1"><g transform="translate(-1.099441, 209.720026)"><g><path d="M 37.921875 -48.59375 L 37.921875 -36.171875 L 27.609375 -36.171875 L 27.609375 -17.671875 C 27.609375 -15.460938 27.972656 -13.847656 28.703125 -12.828125 C 29.441406 -11.816406 30.796875 -11.3125 32.765625 -11.3125 L 37.921875 -11.3125 L 37.921875 -0.546875 C 36.441406 -0.0546875 34.535156 0.335938 32.203125 0.640625 C 29.878906 0.953125 27.859375 1.109375 26.140625 1.109375 C 20.734375 1.109375 16.570312 0.128906 13.65625 -1.828125 C 10.75 -3.796875 9.296875 -7.144531 9.296875 -11.875 L 9.296875 -36.171875 L 2.484375 -36.171875 L 2.484375 -48.59375 L 10.03125 -48.59375 L 13.984375 -63.3125 L 27.609375 -63.3125 L 27.609375 -48.59375 Z M 37.921875 -48.59375 "/></g></g></g><g fill="#2d3a66" fill-opacity="1"><g transform="translate(34.509752, 209.720026)"><g><path d="M 29.546875 -49.703125 C 36.960938 -49.703125 43.003906 -48.457031 47.671875 -45.96875 C 52.335938 -43.488281 54.671875 -39.457031 54.671875 -33.875 L 54.671875 -14.90625 C 54.671875 -13.863281 54.914062 -13.003906 55.40625 -12.328125 C 55.894531 -11.648438 56.628906 -11.3125 57.609375 -11.3125 L 60.921875 -11.3125 L 60.921875 -0.734375 C 60.742188 -0.609375 60.269531 -0.40625 59.5 -0.125 C 58.726562 0.144531 57.632812 0.414062 56.21875 0.6875 C 54.8125 0.96875 53.191406 1.109375 51.359375 1.109375 C 47.796875 1.109375 44.863281 0.570312 42.5625 -0.5 C 40.257812 -1.570312 38.679688 -3.0625 37.828125 -4.96875 C 35.492188 -3.125 32.882812 -1.648438 30 -0.546875 C 27.113281 0.554688 23.738281 1.109375 19.875 1.109375 C 8.46875 1.109375 2.765625 -3.429688 2.765625 -12.515625 C 2.765625 -17.242188 4.035156 -20.847656 6.578125 -23.328125 C 9.128906 -25.816406 12.796875 -27.519531 17.578125 -28.4375 C 22.359375 -29.351562 28.617188 -29.8125 36.359375 -29.8125 L 36.359375 -32.203125 C 36.359375 -34.109375 35.695312 -35.550781 34.375 -36.53125 C 33.050781 -37.519531 31.347656 -38.015625 29.265625 -38.015625 C 27.359375 -38.015625 25.710938 -37.675781 24.328125 -37 C 22.953125 -36.320312 22.265625 -35.25 22.265625 -33.78125 L 22.265625 -33.40625 L 4.234375 -33.40625 C 4.171875 -33.71875 4.140625 -34.148438 4.140625 -34.703125 C 4.140625 -39.296875 6.332031 -42.941406 10.71875 -45.640625 C 15.101562 -48.347656 21.378906 -49.703125 29.546875 -49.703125 Z M 36.359375 -21.171875 C 31.140625 -21.171875 27.285156 -20.601562 24.796875 -19.46875 C 22.316406 -18.332031 21.078125 -16.8125 21.078125 -14.90625 C 21.078125 -11.84375 23.160156 -10.3125 27.328125 -10.3125 C 29.722656 -10.3125 31.828125 -10.953125 33.640625 -12.234375 C 35.453125 -13.523438 36.359375 -15.125 36.359375 -17.03125 Z M 36.359375 -21.171875 "/></g></g></g><g fill="#2d3a66" fill-opacity="1"><g transform="translate(90.638441, 209.720026)"><g><path d="M 6.171875 -54.296875 L 6.171875 -66.71875 L 24.484375 -66.71875 L 24.484375 -54.296875 Z M 6.171875 0 L 6.171875 -48.59375 L 24.484375 -48.59375 L 24.484375 0 Z M 6.171875 0 "/></g></g></g><g fill="#2d3a66" fill-opacity="1"><g transform="translate(116.033898, 209.720026)"><g><path d="M 6.171875 0 L 6.171875 -66.71875 L 24.484375 -66.71875 L 24.484375 0 Z M 6.171875 0 "/></g></g></g><g fill="#2d3a66" fill-opacity="1"><g transform="translate(141.429354, 209.720026)"><g><path d="M 30.640625 -49.703125 C 39.171875 -49.703125 45.875 -47.535156 50.75 -43.203125 C 55.632812 -38.878906 58.078125 -32.578125 58.078125 -24.296875 C 58.078125 -16.015625 55.632812 -9.707031 50.75 -5.375 C 45.875 -1.050781 39.171875 1.109375 30.640625 1.109375 C 22.117188 1.109375 15.429688 -1.035156 10.578125 -5.328125 C 5.734375 -9.628906 3.3125 -15.953125 3.3125 -24.296875 C 3.3125 -32.640625 5.734375 -38.957031 10.578125 -43.25 C 15.429688 -47.550781 22.117188 -49.703125 30.640625 -49.703125 Z M 30.640625 -37.265625 C 24.628906 -37.265625 21.625 -33.800781 21.625 -26.875 L 21.625 -21.625 C 21.625 -14.75 24.628906 -11.3125 30.640625 -11.3125 C 36.710938 -11.3125 39.75 -14.75 39.75 -21.625 L 39.75 -26.875 C 39.75 -33.800781 36.710938 -37.265625 30.640625 -37.265625 Z M 30.640625 -37.265625 "/></g></g></g><g fill="#2d3a66" fill-opacity="1"><g transform="translate(197.558032, 209.720026)"><g><path d="M 35.0625 -49.78125 C 36.476562 -49.78125 37.738281 -49.613281 38.84375 -49.28125 C 39.945312 -48.945312 40.5 -48.75 40.5 -48.6875 L 40.5 -33.3125 L 34.609375 -33.3125 C 30.796875 -33.3125 28.046875 -32.328125 26.359375 -30.359375 C 24.679688 -28.398438 23.84375 -25.488281 23.84375 -21.625 L 23.84375 0 L 5.515625 0 L 5.515625 -48.59375 L 20.515625 -48.59375 L 21.71875 -41.234375 C 22.820312 -44.054688 24.566406 -46.1875 26.953125 -47.625 C 29.347656 -49.0625 32.050781 -49.78125 35.0625 -49.78125 Z M 35.0625 -49.78125 "/></g></g></g><g fill="#2d3a66" fill-opacity="1"><g transform="translate(233.167237, 209.720026)"><g><path d="M 30.640625 -49.703125 C 39.535156 -49.703125 46.332031 -47.613281 51.03125 -43.4375 C 55.726562 -39.269531 58.078125 -32.890625 58.078125 -24.296875 L 58.078125 -21.171875 L 21.625 -21.171875 C 21.625 -17.671875 22.40625 -15.03125 23.96875 -13.25 C 25.539062 -11.46875 28.007812 -10.578125 31.375 -10.578125 C 34.445312 -10.578125 36.703125 -11.222656 38.140625 -12.515625 C 39.585938 -13.804688 40.3125 -15.523438 40.3125 -17.671875 L 58.078125 -17.671875 C 58.078125 -11.773438 55.835938 -7.171875 51.359375 -3.859375 C 46.878906 -0.546875 40.34375 1.109375 31.75 1.109375 C 22.726562 1.109375 15.734375 -0.988281 10.765625 -5.1875 C 5.796875 -9.394531 3.3125 -15.765625 3.3125 -24.296875 C 3.3125 -32.640625 5.734375 -38.957031 10.578125 -43.25 C 15.429688 -47.550781 22.117188 -49.703125 30.640625 -49.703125 Z M 31.375 -38.015625 C 25.613281 -38.015625 22.394531 -35.28125 21.71875 -29.8125 L 39.578125 -29.8125 C 39.578125 -32.332031 38.851562 -34.328125 37.40625 -35.796875 C 35.96875 -37.273438 33.957031 -38.015625 31.375 -38.015625 Z M 31.375 -38.015625 "/></g></g></g><g fill="#2d3a66" fill-opacity="1"><g transform="translate(289.295926, 209.720026)"><g><path d="M 40.859375 0 L 39.296875 -6.90625 C 35.734375 -1.5625 30.582031 1.109375 23.84375 1.109375 C 17.269531 1.109375 12.203125 -1.035156 8.640625 -5.328125 C 5.085938 -9.628906 3.3125 -15.984375 3.3125 -24.390625 C 3.3125 -32.734375 5.085938 -39.035156 8.640625 -43.296875 C 12.203125 -47.566406 17.269531 -49.703125 23.84375 -49.703125 C 29.414062 -49.703125 33.953125 -47.828125 37.453125 -44.078125 L 37.453125 -66.71875 L 55.765625 -66.71875 L 55.765625 0 Z M 29.546875 -36.171875 C 24.265625 -36.171875 21.625 -33.007812 21.625 -26.6875 L 21.625 -21.8125 C 21.625 -15.550781 24.265625 -12.421875 29.546875 -12.421875 C 32.242188 -12.421875 34.265625 -13.367188 35.609375 -15.265625 C 36.960938 -17.171875 37.640625 -19.660156 37.640625 -22.734375 L 37.640625 -25.765625 C 37.640625 -28.835938 36.960938 -31.335938 35.609375 -33.265625 C 34.265625 -35.203125 32.242188 -36.171875 29.546875 -36.171875 Z M 29.546875 -36.171875 "/></g></g></g><g fill="#ff6f61" fill-opacity="1"><g transform="translate(345.435696, 209.720026)"><g><path d="M 5.609375 0 L 5.609375 -18.3125 L 25.125 -18.3125 L 25.125 0 Z M 5.609375 0 "/></g></g></g></svg>