<svg xmlns="http://www.w3.org/2000/svg" xmlns:xlink="http://www.w3.org/1999/xlink" zoomAndPan="magnify" preserveAspectRatio="xMidYMid meet" version="1.0" viewBox="0.04 92.45 299.11 190.55"><defs><g/><clipPath id="f66b54f513"><path d="M 33 137 L 92 137 L 92 283 L 33 283 Z M 33 137 " clip-rule="nonzero"/></clipPath><clipPath id="258c1b0296"><path d="M 156.710938 92.917969 L 190.476562 248.542969 L 33.902344 282.511719 L 0.140625 126.886719 Z M 156.710938 92.917969 " clip-rule="nonzero"/></clipPath><clipPath id="4ba90c218c"><path d="M 190.371094 248.066406 L 156.609375 92.445312 L 0.0351562 126.414062 L 33.800781 282.039062 Z M 190.371094 248.066406 " clip-rule="nonzero"/></clipPath><clipPath id="fd0d127be7"><path d="M 33 136 L 93 136 L 93 283 L 33 283 Z M 33 136 " clip-rule="nonzero"/></clipPath><clipPath id="aa4a8de293"><path d="M 156.710938 92.917969 L 190.476562 248.542969 L 33.902344 282.511719 L 0.140625 126.886719 Z M 156.710938 92.917969 " clip-rule="nonzero"/></clipPath><clipPath id="097f303e30"><path d="M 190.371094 248.066406 L 156.609375 92.445312 L 0.0351562 126.414062 L 33.800781 282.039062 Z M 190.371094 248.066406 " clip-rule="nonzero"/></clipPath><clipPath id="34ba578ca4"><path d="M 48 98 L 164 98 L 164 172 L 48 172 Z M 48 98 " clip-rule="nonzero"/></clipPath><clipPath id="40113df4b8"><path d="M 156.710938 92.917969 L 190.476562 248.542969 L 33.902344 282.511719 L 0.140625 126.886719 Z M 156.710938 92.917969 " clip-rule="nonzero"/></clipPath><clipPath id="7fbcbd8f70"><path d="M 190.371094 248.066406 L 156.609375 92.445312 L 0.0351562 126.414062 L 33.800781 282.039062 Z M 190.371094 248.066406 " clip-rule="nonzero"/></clipPath></defs><g clip-path="url(#f66b54f513)"><g clip-path="url(#258c1b0296)"><g clip-path="url(#4ba90c218c)"><path fill="#d4a437" d="M 89.753906 137.710938 C 94.726562 139.640625 87.589844 165.53125 76.480469 180.804688 C 69.855469 197.417969 43.851562 262.570312 33.773438 282.015625 C 39.445312 260.859375 64.175781 195.210938 70.492188 178.480469 C 72.585938 159.710938 84.78125 135.785156 89.753906 137.710938 Z M 88.292969 141.960938 C 86.953125 141.441406 82.78125 148.980469 78.976562 158.789062 C 75.171875 168.59375 73.167969 176.972656 74.507812 177.496094 C 75.847656 178.015625 80.027344 170.476562 83.832031 160.671875 C 87.636719 150.863281 89.632812 142.480469 88.292969 141.960938 Z M 88.292969 141.960938 " fill-opacity="1" fill-rule="evenodd"/></g></g></g><g clip-path="url(#fd0d127be7)"><g clip-path="url(#aa4a8de293)"><g clip-path="url(#097f303e30)"><path stroke-linecap="butt" transform="matrix(-0.0808962, -0.372864, -0.372864, 0.0808962, 202.069971, 275.240372)" fill="none" stroke-linejoin="miter" d="M 414.679847 211.256636 C 406.973826 199.592153 344.624207 232.259712 311.676836 269.202625 C 272.805599 295.403943 120.376755 398.215672 76.170571 434.835532 C 127.207716 408.550938 281.614908 308.725274 320.957795 283.249258 C 367.870069 267.455912 422.375862 222.923289 414.679847 211.256636 Z M 404.605867 217.360423 C 406.681149 220.503554 389.689152 235.378841 366.679984 250.574831 C 343.680821 265.76865 323.332902 275.55767 321.247614 272.416709 C 319.172332 269.273578 336.159988 254.37828 359.15915 239.184461 C 382.168318 223.988471 402.530585 214.217291 404.605867 217.360423 Z M 404.605867 217.360423 " stroke="#000000" stroke-width="0.348" stroke-opacity="1" stroke-miterlimit="4"/></g></g></g><g clip-path="url(#34ba578ca4)"><g clip-path="url(#40113df4b8)"><g clip-path="url(#7fbcbd8f70)"><path fill="#d4a437" d="M 77.914062 162.234375 C 77.132812 161.921875 85.820312 165.589844 74.859375 160.992188 C 63.898438 156.394531 57.3125 151.835938 48.394531 139.847656 C 47.800781 139.046875 47.964844 137.917969 48.765625 137.320312 C 49.5625 136.722656 50.699219 136.886719 51.292969 137.6875 C 59.9375 149.308594 65.585938 153.246094 76.113281 157.617188 C 86.640625 161.988281 78.398438 158.542969 79.183594 158.851562 C 79.972656 159.160156 80.78125 159.480469 81.621094 159.800781 C 82.375 160.089844 83.1875 160.398438 84.039062 160.714844 C 83.996094 160.824219 83.957031 160.933594 83.914062 161.042969 C 83.511719 162.082031 83.101562 163.085938 82.691406 164.066406 C 81.863281 163.757812 81.066406 163.457031 80.324219 163.175781 C 79.496094 162.855469 78.695312 162.542969 77.914062 162.230469 Z M 163.417969 124.082031 C 163.46875 124.316406 163.515625 124.550781 163.554688 124.78125 C 163.652344 125.3125 163.726562 125.828125 163.777344 126.332031 C 164.171875 130.355469 162.929688 133.652344 160.457031 135.59375 C 157.988281 137.539062 154.609375 138.101562 150.953125 137.726562 C 147.300781 137.347656 143.285156 136.023438 139.28125 133.867188 C 138.40625 133.394531 138.074219 132.300781 138.546875 131.421875 C 139.019531 130.542969 140.117188 130.214844 140.996094 130.6875 C 144.648438 132.65625 148.273438 133.816406 151.324219 134.132812 C 154.378906 134.445312 156.777344 133.898438 158.226562 132.761719 C 159.675781 131.621094 160.496094 129.863281 160.183594 126.683594 C 159.871094 123.507812 158.25 119.039062 154.75 113.351562 C 147.984375 102.367188 137.34375 100.988281 129.316406 103.726562 C 125.304688 105.09375 122.042969 107.558594 120.414062 110.234375 C 118.785156 112.90625 118.574219 115.605469 120.597656 118.5625 C 125.230469 125.34375 130.722656 131.175781 134.355469 137.785156 C 137.984375 144.394531 139.589844 151.960938 136.210938 161.296875 C 134.433594 166.207031 130.613281 169.246094 126.03125 170.695312 C 121.449219 172.148438 116.082031 172.183594 110.53125 171.515625 C 101.761719 170.460938 92.515625 167.597656 85.449219 165.070312 C 85.925781 163.949219 86.378906 162.832031 86.808594 161.71875 C 93.746094 164.183594 102.730469 166.941406 110.96875 167.933594 C 116.214844 168.566406 121.140625 168.460938 124.945312 167.253906 C 128.75 166.050781 131.417969 163.921875 132.8125 160.066406 C 135.871094 151.621094 134.503906 145.554688 131.191406 139.523438 C 127.875 133.492188 122.449219 127.667969 117.617188 120.597656 C 114.871094 116.578125 115.128906 111.976562 117.332031 108.355469 C 119.539062 104.730469 123.476562 101.902344 128.152344 100.304688 C 137.511719 97.113281 150.226562 99.117188 157.828125 111.457031 C 160.84375 116.359375 162.648438 120.523438 163.417969 124.082031 Z M 163.417969 124.082031 " fill-opacity="1" fill-rule="evenodd"/></g></g></g><g fill="#f3f0ec" fill-opacity="1"><g transform="translate(73.313539, 240.552275)"><g><path d="M 26.875 -4.890625 L 26.875 -3.203125 C 26.875 -2.554688 26.785156 -2.140625 26.609375 -1.953125 C 26.429688 -1.773438 26 -1.609375 25.3125 -1.453125 C 24.90625 -1.410156 24.5 -1.378906 24.09375 -1.359375 C 23.695312 -1.335938 23.335938 -1.226562 23.015625 -1.03125 C 22.410156 -0.75 21.863281 -0.65625 21.375 -0.75 C 20.894531 -0.851562 20.394531 -1.046875 19.875 -1.328125 C 19.101562 -1.691406 18.660156 -2.296875 18.546875 -3.140625 L 18 -8.15625 C 17.957031 -8.957031 17.535156 -9.378906 16.734375 -9.421875 C 15.285156 -9.503906 13.832031 -9.414062 12.375 -9.15625 C 10.925781 -8.894531 9.476562 -8.722656 8.03125 -8.640625 C 7.789062 -8.597656 7.597656 -8.492188 7.453125 -8.328125 C 7.316406 -8.171875 7.1875 -7.992188 7.0625 -7.796875 C 6.90625 -7.304688 6.710938 -6.828125 6.484375 -6.359375 C 6.265625 -5.898438 6.054688 -5.453125 5.859375 -5.015625 C 5.578125 -4.492188 5.316406 -3.945312 5.078125 -3.375 C 4.835938 -2.8125 4.570312 -2.25 4.28125 -1.6875 C 3.925781 -1.039062 3.585938 -0.644531 3.265625 -0.5 C 2.941406 -0.363281 2.476562 -0.4375 1.875 -0.71875 C 0.539062 -1.25 -0.6875 -1.816406 -1.8125 -2.421875 C -2.695312 -2.941406 -3.195312 -3.429688 -3.3125 -3.890625 C -3.4375 -4.359375 -3.300781 -5.054688 -2.90625 -5.984375 C -2.09375 -7.867188 -1.289062 -9.738281 -0.5 -11.59375 C 0.28125 -13.445312 1.070312 -15.300781 1.875 -17.15625 C 3.320312 -20.5 4.78125 -23.84375 6.25 -27.1875 C 7.71875 -30.53125 9.195312 -33.851562 10.6875 -37.15625 C 11.007812 -37.832031 11.34375 -38.484375 11.6875 -39.109375 C 12.03125 -39.734375 12.363281 -40.367188 12.6875 -41.015625 C 12.882812 -41.335938 13.082031 -41.546875 13.28125 -41.640625 C 13.488281 -41.742188 13.8125 -41.695312 14.25 -41.5 C 14.8125 -41.300781 15.4375 -41.28125 16.125 -41.4375 C 16.8125 -41.601562 17.476562 -41.503906 18.125 -41.140625 C 18.363281 -40.972656 18.625 -40.957031 18.90625 -41.09375 C 19.1875 -41.238281 19.425781 -41.394531 19.625 -41.5625 C 20.03125 -41.84375 20.40625 -41.953125 20.75 -41.890625 C 21.09375 -41.828125 21.460938 -41.71875 21.859375 -41.5625 C 23.472656 -41.070312 24.28125 -40.023438 24.28125 -38.421875 C 24.28125 -38.210938 24.320312 -37.988281 24.40625 -37.75 C 24.488281 -37.507812 24.53125 -37.289062 24.53125 -37.09375 C 24.5625 -33.0625 24.769531 -29.03125 25.15625 -25 C 25.539062 -20.976562 25.875 -16.953125 26.15625 -12.921875 C 26.238281 -11.554688 26.335938 -10.207031 26.453125 -8.875 C 26.578125 -7.550781 26.703125 -6.222656 26.828125 -4.890625 Z M 17.21875 -19.453125 C 17.09375 -20.859375 16.96875 -22.253906 16.84375 -23.640625 C 16.726562 -25.035156 16.628906 -26.414062 16.546875 -27.78125 C 16.390625 -27.78125 16.25 -27.789062 16.125 -27.8125 C 16.007812 -27.832031 15.910156 -27.800781 15.828125 -27.71875 C 15.585938 -27.4375 15.273438 -26.894531 14.890625 -26.09375 C 14.503906 -25.289062 14.085938 -24.351562 13.640625 -23.28125 C 13.203125 -22.21875 12.800781 -21.179688 12.4375 -20.171875 C 12.082031 -19.171875 11.800781 -18.328125 11.59375 -17.640625 C 12.40625 -17.441406 13.191406 -17.429688 13.953125 -17.609375 C 14.710938 -17.785156 15.476562 -17.914062 16.25 -18 C 16.6875 -18.082031 16.96875 -18.242188 17.09375 -18.484375 C 17.21875 -18.722656 17.257812 -19.046875 17.21875 -19.453125 Z M 17.21875 -19.453125 "/></g></g></g><g fill="#f3f0ec" fill-opacity="1"><g transform="translate(107.928767, 240.552275)"><g><path d="M 14.4375 -39.5625 C 15.40625 -39.039062 15.890625 -38.15625 15.890625 -36.90625 L 15.578125 -35.828125 L 9.96875 -16.4375 C 9.519531 -14.820312 9.070312 -13.207031 8.625 -11.59375 C 8.1875 -9.988281 7.75 -8.359375 7.3125 -6.703125 C 7.101562 -5.941406 6.890625 -5.1875 6.671875 -4.4375 C 6.453125 -3.695312 6.222656 -2.960938 5.984375 -2.234375 C 5.578125 -1.066406 4.8125 -0.625 3.6875 -0.90625 C 3.195312 -0.988281 2.710938 -1.097656 2.234375 -1.234375 C 1.753906 -1.378906 1.269531 -1.507812 0.78125 -1.625 C 0.175781 -1.75 -0.3125 -2.007812 -0.6875 -2.40625 C -1.070312 -2.8125 -1.425781 -3.238281 -1.75 -3.6875 C -1.914062 -3.925781 -1.988281 -4.1875 -1.96875 -4.46875 C -1.945312 -4.75 -1.894531 -5.03125 -1.8125 -5.3125 C -1.125 -7.726562 -0.453125 -10.15625 0.203125 -12.59375 C 0.867188 -15.03125 1.546875 -17.457031 2.234375 -19.875 C 2.796875 -21.800781 3.347656 -23.738281 3.890625 -25.6875 C 4.441406 -27.644531 5 -29.59375 5.5625 -31.53125 C 6 -32.9375 6.4375 -34.332031 6.875 -35.71875 C 7.320312 -37.113281 7.769531 -38.5 8.21875 -39.875 C 8.332031 -40.226562 8.507812 -40.46875 8.75 -40.59375 C 9 -40.71875 9.320312 -40.796875 9.71875 -40.828125 C 10.644531 -40.953125 11.472656 -40.882812 12.203125 -40.625 C 12.929688 -40.363281 13.675781 -40.007812 14.4375 -39.5625 Z M 14.4375 -39.5625 "/></g></g></g><g fill="#f3f0ec" fill-opacity="1"><g transform="translate(124.602178, 240.552275)"><g><path d="M 5.140625 -0.90625 C 4.367188 -0.78125 3.585938 -0.707031 2.796875 -0.6875 C 2.015625 -0.675781 1.222656 -0.75 0.421875 -0.90625 C 0.265625 -1.382812 0.117188 -1.875 -0.015625 -2.375 C -0.160156 -2.882812 -0.378906 -3.34375 -0.671875 -3.75 C -1.066406 -4.3125 -1.285156 -4.851562 -1.328125 -5.375 C -1.367188 -5.894531 -1.289062 -6.476562 -1.09375 -7.125 C -0.164062 -10.1875 0.6875 -13.265625 1.46875 -16.359375 C 2.257812 -19.460938 3.039062 -22.566406 3.8125 -25.671875 C 4.375 -27.960938 4.972656 -30.242188 5.609375 -32.515625 C 6.253906 -34.796875 6.878906 -37.066406 7.484375 -39.328125 C 7.566406 -39.609375 7.65625 -39.878906 7.75 -40.140625 C 7.851562 -40.398438 7.96875 -40.648438 8.09375 -40.890625 C 8.175781 -41.097656 8.296875 -41.28125 8.453125 -41.4375 C 8.617188 -41.601562 8.84375 -41.664062 9.125 -41.625 C 10.164062 -41.457031 11.195312 -41.3125 12.21875 -41.1875 C 13.25 -41.070312 14.191406 -40.613281 15.046875 -39.8125 C 15.722656 -39.164062 15.960938 -38.476562 15.765625 -37.75 C 15.484375 -36.75 15.203125 -35.734375 14.921875 -34.703125 C 14.640625 -33.671875 14.359375 -32.632812 14.078125 -31.59375 L 8.9375 -11.421875 C 8.738281 -10.648438 8.71875 -10.144531 8.875 -9.90625 C 9.039062 -9.664062 9.503906 -9.566406 10.265625 -9.609375 C 12.035156 -9.722656 13.816406 -9.832031 15.609375 -9.9375 C 17.398438 -10.039062 19.203125 -10.148438 21.015625 -10.265625 C 21.828125 -10.347656 22.398438 -10.359375 22.734375 -10.296875 C 23.078125 -10.234375 23.316406 -10.03125 23.453125 -9.6875 C 23.597656 -9.351562 23.753906 -8.742188 23.921875 -7.859375 C 24.003906 -7.328125 24.082031 -6.78125 24.15625 -6.21875 C 24.238281 -5.65625 24.238281 -5.09375 24.15625 -4.53125 C 24 -3.644531 23.757812 -3.03125 23.4375 -2.6875 C 23.113281 -2.34375 22.488281 -2.128906 21.5625 -2.046875 C 19.957031 -1.890625 18.347656 -1.757812 16.734375 -1.65625 C 15.117188 -1.5625 13.488281 -1.472656 11.84375 -1.390625 C 10.707031 -1.347656 9.585938 -1.304688 8.484375 -1.265625 C 7.378906 -1.222656 6.265625 -1.101562 5.140625 -0.90625 Z M 5.140625 -0.90625 "/></g></g></g><g fill="#f3f0ec" fill-opacity="1"><g transform="translate(155.834442, 240.552275)"><g><path d="M 1.03125 -10.265625 C 0.90625 -11.148438 0.800781 -12.035156 0.71875 -12.921875 C 0.644531 -13.804688 0.707031 -14.675781 0.90625 -15.53125 C 0.863281 -17.539062 1.050781 -19.472656 1.46875 -21.328125 C 1.894531 -23.179688 2.429688 -25.015625 3.078125 -26.828125 C 4.203125 -29.804688 5.679688 -32.503906 7.515625 -34.921875 C 9.347656 -37.335938 11.632812 -39.410156 14.375 -41.140625 C 15.34375 -41.742188 16.347656 -42.234375 17.390625 -42.609375 C 18.441406 -42.992188 19.53125 -43.207031 20.65625 -43.25 C 21.582031 -43.332031 22.519531 -43.34375 23.46875 -43.28125 C 24.414062 -43.21875 25.269531 -42.804688 26.03125 -42.046875 C 26.113281 -41.960938 26.210938 -41.910156 26.328125 -41.890625 C 26.453125 -41.867188 26.554688 -41.816406 26.640625 -41.734375 C 29.210938 -40.734375 31.082031 -39.253906 32.25 -37.296875 C 33.425781 -35.347656 34.210938 -33.101562 34.609375 -30.5625 C 34.929688 -28.351562 34.960938 -26.171875 34.703125 -24.015625 C 34.441406 -21.859375 34.03125 -19.710938 33.46875 -17.578125 C 33.1875 -16.453125 32.875 -15.320312 32.53125 -14.1875 C 32.1875 -13.0625 31.789062 -11.9375 31.34375 -10.8125 C 30.457031 -8.519531 29.257812 -6.492188 27.75 -4.734375 C 26.238281 -2.984375 24.359375 -1.585938 22.109375 -0.546875 C 19.210938 0.828125 16.375 1.3125 13.59375 0.90625 C 10.8125 0.5 8.113281 -0.546875 5.5 -2.234375 C 4.125 -3.160156 3.082031 -4.328125 2.375 -5.734375 C 1.675781 -7.148438 1.226562 -8.660156 1.03125 -10.265625 Z M 23.734375 -14.859375 C 24.546875 -16.710938 25.171875 -18.613281 25.609375 -20.5625 C 26.054688 -22.519531 26.378906 -24.460938 26.578125 -26.390625 C 26.535156 -26.710938 26.515625 -26.984375 26.515625 -27.203125 C 26.515625 -27.429688 26.492188 -27.664062 26.453125 -27.90625 C 26.410156 -28.382812 26.347656 -28.875 26.265625 -29.375 C 26.191406 -29.882812 26.09375 -30.382812 25.96875 -30.875 C 25.488281 -33.125 24.0625 -34.3125 21.6875 -34.4375 C 20.3125 -34.507812 19.117188 -34.234375 18.109375 -33.609375 C 17.109375 -32.992188 16.1875 -32.203125 15.34375 -31.234375 C 13.445312 -29.015625 12.003906 -26.613281 11.015625 -24.03125 C 10.035156 -21.457031 9.425781 -18.742188 9.1875 -15.890625 C 9.144531 -15.003906 9.113281 -14.117188 9.09375 -13.234375 C 9.070312 -12.347656 9.222656 -11.460938 9.546875 -10.578125 C 9.703125 -10.210938 9.859375 -9.859375 10.015625 -9.515625 C 10.179688 -9.171875 10.445312 -8.898438 10.8125 -8.703125 C 11.820312 -8.253906 12.828125 -7.867188 13.828125 -7.546875 C 14.835938 -7.222656 15.882812 -7.1875 16.96875 -7.4375 C 19.144531 -8 20.773438 -9.285156 21.859375 -11.296875 C 22.179688 -11.859375 22.503906 -12.441406 22.828125 -13.046875 C 23.148438 -13.648438 23.453125 -14.253906 23.734375 -14.859375 Z M 23.734375 -14.859375 "/></g></g></g><g fill="#f3f0ec" fill-opacity="1"><g transform="translate(194.376333, 240.552275)"><g><path d="M 12.6875 -41.796875 C 13.851562 -42.078125 15.050781 -42.316406 16.28125 -42.515625 C 17.507812 -42.722656 18.75 -42.828125 20 -42.828125 C 20.71875 -42.742188 21.4375 -42.660156 22.15625 -42.578125 C 22.882812 -42.503906 23.613281 -42.40625 24.34375 -42.28125 C 26.195312 -41.957031 27.773438 -41.179688 29.078125 -39.953125 C 30.390625 -38.722656 31.367188 -37.273438 32.015625 -35.609375 C 32.660156 -33.941406 32.882812 -32.238281 32.6875 -30.5 C 32.394531 -28.007812 31.613281 -25.804688 30.34375 -23.890625 C 29.082031 -21.972656 27.445312 -20.289062 25.4375 -18.84375 C 25.226562 -18.6875 25.003906 -18.546875 24.765625 -18.421875 C 24.523438 -18.304688 24.285156 -18.164062 24.046875 -18 C 23.160156 -17.476562 22.664062 -17.085938 22.5625 -16.828125 C 22.457031 -16.566406 22.609375 -15.910156 23.015625 -14.859375 C 23.453125 -13.734375 23.910156 -12.601562 24.390625 -11.46875 C 24.878906 -10.34375 25.390625 -9.195312 25.921875 -8.03125 C 26.035156 -7.75 26.171875 -7.457031 26.328125 -7.15625 C 26.492188 -6.851562 26.640625 -6.539062 26.765625 -6.21875 C 27.242188 -4.96875 27.613281 -4.050781 27.875 -3.46875 C 28.132812 -2.882812 28.203125 -2.472656 28.078125 -2.234375 C 27.960938 -1.992188 27.601562 -1.742188 27 -1.484375 C 26.394531 -1.222656 25.445312 -0.789062 24.15625 -0.1875 C 23.957031 -0.101562 23.753906 -0.015625 23.546875 0.078125 C 23.347656 0.179688 23.148438 0.273438 22.953125 0.359375 C 21.378906 0.765625 20.289062 0.265625 19.6875 -1.140625 L 14.984375 -12.328125 C 14.859375 -12.566406 14.742188 -12.816406 14.640625 -13.078125 C 14.546875 -13.335938 14.4375 -13.585938 14.3125 -13.828125 C 14.03125 -14.429688 13.609375 -14.734375 13.046875 -14.734375 C 12.765625 -14.734375 12.484375 -14.722656 12.203125 -14.703125 C 11.921875 -14.679688 11.640625 -14.671875 11.359375 -14.671875 C 10.515625 -14.640625 10.007812 -14.539062 9.84375 -14.375 C 9.6875 -14.21875 9.445312 -13.675781 9.125 -12.75 C 8.519531 -10.769531 7.9375 -8.785156 7.375 -6.796875 C 6.8125 -4.804688 6.125 -2.84375 5.3125 -0.90625 C 5.03125 -0.34375 4.785156 -0.0195312 4.578125 0.0625 C 4.378906 0.144531 3.941406 0.0820312 3.265625 -0.125 C 2.859375 -0.238281 2.429688 -0.363281 1.984375 -0.5 C 1.546875 -0.644531 1.109375 -0.757812 0.671875 -0.84375 C 0.222656 -0.925781 -0.1875 -1.078125 -0.5625 -1.296875 C -0.945312 -1.515625 -1.320312 -1.765625 -1.6875 -2.046875 C -2.375 -2.691406 -2.578125 -3.5 -2.296875 -4.46875 C -1.734375 -6.125 -1.195312 -7.773438 -0.6875 -9.421875 C -0.1875 -11.078125 0.320312 -12.726562 0.84375 -14.375 L 7.1875 -35.703125 C 7.226562 -35.859375 7.269531 -36.015625 7.3125 -36.171875 C 7.351562 -36.335938 7.394531 -36.503906 7.4375 -36.671875 C 7.789062 -37.921875 8.128906 -38.863281 8.453125 -39.5 C 8.773438 -40.144531 9.25 -40.628906 9.875 -40.953125 C 10.5 -41.273438 11.4375 -41.554688 12.6875 -41.796875 Z M 22.34375 -27.1875 C 23.550781 -28.351562 24.195312 -29.820312 24.28125 -31.59375 C 24.28125 -32.394531 24.109375 -32.976562 23.765625 -33.34375 C 23.421875 -33.707031 22.890625 -33.96875 22.171875 -34.125 C 21.285156 -34.289062 20.398438 -34.34375 19.515625 -34.28125 C 18.628906 -34.21875 17.742188 -34.144531 16.859375 -34.0625 C 15.847656 -34.03125 15.203125 -33.53125 14.921875 -32.5625 C 14.679688 -31.550781 14.425781 -30.5625 14.15625 -29.59375 C 13.894531 -28.632812 13.644531 -27.671875 13.40625 -26.703125 C 13.25 -26.179688 13.039062 -25.625 12.78125 -25.03125 C 12.519531 -24.445312 12.546875 -23.957031 12.859375 -23.5625 C 13.347656 -23 13.90625 -22.859375 14.53125 -23.140625 C 15.15625 -23.421875 15.75 -23.640625 16.3125 -23.796875 C 17.476562 -24.117188 18.5625 -24.550781 19.5625 -25.09375 C 20.570312 -25.644531 21.5 -26.34375 22.34375 -27.1875 Z M 22.34375 -27.1875 "/></g></g></g><g fill="#f3f0ec" fill-opacity="1"><g transform="translate(230.562217, 240.552275)"><g><path d="M 21.328125 -11.421875 C 21.566406 -11.773438 21.835938 -12.113281 22.140625 -12.4375 C 22.441406 -12.757812 22.773438 -13.125 23.140625 -13.53125 C 23.898438 -13.050781 24.628906 -12.578125 25.328125 -12.109375 C 26.035156 -11.648438 26.710938 -11.195312 27.359375 -10.75 C 27.890625 -10.425781 28.273438 -10.023438 28.515625 -9.546875 C 29.078125 -8.742188 29.078125 -7.914062 28.515625 -7.0625 C 27.066406 -4.894531 25.320312 -3.15625 23.28125 -1.84375 C 21.25 -0.53125 18.984375 0.40625 16.484375 0.96875 C 14.597656 1.375 12.707031 1.515625 10.8125 1.390625 C 8.914062 1.265625 7.082031 0.738281 5.3125 -0.1875 C 3.863281 -0.945312 2.695312 -1.972656 1.8125 -3.265625 C 0.6875 -4.910156 -0.09375 -6.789062 -0.53125 -8.90625 C -0.976562 -11.019531 -0.960938 -13.175781 -0.484375 -15.375 C -0.00390625 -17.570312 1.0625 -19.578125 2.71875 -21.390625 C 2.875 -21.546875 3.03125 -21.703125 3.1875 -21.859375 C 3.351562 -22.023438 3.519531 -22.1875 3.6875 -22.34375 C 4.125 -22.789062 4.625 -23.1875 5.1875 -23.53125 C 5.757812 -23.875 6.144531 -24.304688 6.34375 -24.828125 C 6.539062 -25.304688 6.554688 -25.867188 6.390625 -26.515625 C 6.234375 -27.160156 6.117188 -27.785156 6.046875 -28.390625 C 6.003906 -29.441406 6.125 -30.445312 6.40625 -31.40625 C 6.6875 -32.375 7.085938 -33.300781 7.609375 -34.1875 C 8.984375 -36.5625 10.707031 -38.382812 12.78125 -39.65625 C 14.851562 -40.925781 17.175781 -41.84375 19.75 -42.40625 C 20.394531 -42.53125 21.019531 -42.5625 21.625 -42.5 C 22.226562 -42.4375 22.832031 -42.125 23.4375 -41.5625 C 24 -41.070312 24.679688 -40.742188 25.484375 -40.578125 C 26.296875 -40.421875 27.0625 -40.1875 27.78125 -39.875 C 29.800781 -38.988281 31.265625 -37.726562 32.171875 -36.09375 C 33.078125 -34.457031 33.585938 -32.570312 33.703125 -30.4375 C 33.785156 -29.550781 33.425781 -29.109375 32.625 -29.109375 C 31.289062 -28.992188 29.957031 -28.816406 28.625 -28.578125 C 27.738281 -28.367188 27.066406 -28.40625 26.609375 -28.6875 C 26.148438 -28.96875 25.757812 -29.570312 25.4375 -30.5 C 24.863281 -32.15625 23.691406 -33.023438 21.921875 -33.109375 C 21.597656 -33.140625 21.265625 -33.15625 20.921875 -33.15625 C 20.585938 -33.15625 20.257812 -33.15625 19.9375 -33.15625 C 17.351562 -33.082031 15.5625 -31.796875 14.5625 -29.296875 C 14.4375 -28.929688 14.441406 -28.609375 14.578125 -28.328125 C 14.722656 -28.046875 15 -27.863281 15.40625 -27.78125 C 16.40625 -27.582031 17.410156 -27.503906 18.421875 -27.546875 C 19.429688 -27.585938 20.4375 -27.6875 21.4375 -27.84375 C 22.007812 -27.925781 22.382812 -27.894531 22.5625 -27.75 C 22.738281 -27.613281 22.890625 -27.265625 23.015625 -26.703125 C 23.171875 -26.015625 23.316406 -25.304688 23.453125 -24.578125 C 23.597656 -23.859375 23.734375 -23.132812 23.859375 -22.40625 C 23.984375 -21.519531 23.894531 -20.875 23.59375 -20.46875 C 23.289062 -20.070312 22.710938 -19.773438 21.859375 -19.578125 C 19.804688 -19.128906 17.796875 -18.96875 15.828125 -19.09375 C 14.492188 -19.164062 13.289062 -18.921875 12.21875 -18.359375 C 11.15625 -17.796875 10.160156 -17.050781 9.234375 -16.125 C 8.273438 -15.15625 7.703125 -13.96875 7.515625 -12.5625 C 7.335938 -11.15625 7.570312 -9.847656 8.21875 -8.640625 C 8.457031 -8.191406 8.757812 -7.867188 9.125 -7.671875 C 9.84375 -7.347656 10.582031 -7.082031 11.34375 -6.875 C 12.113281 -6.675781 12.882812 -6.679688 13.65625 -6.890625 C 15.144531 -7.285156 16.5625 -7.796875 17.90625 -8.421875 C 19.257812 -9.046875 20.398438 -10.046875 21.328125 -11.421875 Z M 21.328125 -11.421875 "/></g></g></g><g fill="#f3f0ec" fill-opacity="1"><g transform="translate(266.32523, 240.552275)"><g><path d="M 16.96875 -2.046875 C 15.71875 -1.441406 14.144531 -0.957031 12.25 -0.59375 C 10.363281 -0.238281 8.554688 -0.0625 6.828125 -0.0625 C 5.492188 -0.0195312 4.203125 -0.148438 2.953125 -0.453125 C 1.710938 -0.753906 0.46875 -1.085938 -0.78125 -1.453125 C -1.914062 -1.734375 -2.378906 -2.519531 -2.171875 -3.8125 C -1.929688 -5.132812 -1.628906 -6.441406 -1.265625 -7.734375 C 0.140625 -12.523438 1.566406 -17.304688 3.015625 -22.078125 C 4.460938 -26.847656 5.894531 -31.628906 7.3125 -36.421875 C 7.394531 -36.703125 7.484375 -36.960938 7.578125 -37.203125 C 7.679688 -37.453125 7.753906 -37.71875 7.796875 -38 C 8.035156 -39.039062 8.425781 -39.851562 8.96875 -40.4375 C 9.507812 -41.019531 10.40625 -41.289062 11.65625 -41.25 C 12.707031 -41.25 13.753906 -41.378906 14.796875 -41.640625 C 15.847656 -41.910156 16.894531 -42.082031 17.9375 -42.15625 C 22.488281 -42.644531 26.335938 -41.21875 29.484375 -37.875 C 30.609375 -36.625 31.398438 -35.273438 31.859375 -33.828125 C 32.328125 -32.378906 32.617188 -30.847656 32.734375 -29.234375 C 32.816406 -28.191406 32.835938 -27.132812 32.796875 -26.0625 C 32.753906 -25 32.570312 -23.941406 32.25 -22.890625 C 32.007812 -22.128906 31.804688 -21.375 31.640625 -20.625 C 31.484375 -19.882812 31.285156 -19.128906 31.046875 -18.359375 C 28.796875 -10.910156 24.101562 -5.472656 16.96875 -2.046875 Z M 18.84375 -13.46875 C 20.613281 -15.40625 21.953125 -17.53125 22.859375 -19.84375 C 23.765625 -22.15625 24.257812 -24.640625 24.34375 -27.296875 C 24.300781 -27.742188 24.28125 -28.1875 24.28125 -28.625 C 24.28125 -29.070312 24.238281 -29.519531 24.15625 -29.96875 C 24.039062 -31.050781 23.617188 -31.941406 22.890625 -32.640625 C 22.171875 -33.347656 21.265625 -33.742188 20.171875 -33.828125 C 19.734375 -33.867188 19.28125 -33.867188 18.8125 -33.828125 C 18.351562 -33.785156 17.898438 -33.765625 17.453125 -33.765625 C 15.960938 -33.765625 15.019531 -33.019531 14.625 -31.53125 C 13.851562 -28.988281 13.082031 -26.457031 12.3125 -23.9375 C 11.550781 -21.425781 10.769531 -18.90625 9.96875 -16.375 C 9.644531 -15.320312 9.332031 -14.25 9.03125 -13.15625 C 8.726562 -12.070312 8.414062 -10.988281 8.09375 -9.90625 C 7.851562 -9.101562 8.195312 -8.703125 9.125 -8.703125 C 11.132812 -8.742188 12.941406 -9.195312 14.546875 -10.0625 C 16.160156 -10.925781 17.59375 -12.0625 18.84375 -13.46875 Z M 18.84375 -13.46875 "/></g></g></g></svg>