<svg xmlns="http://www.w3.org/2000/svg" xmlns:xlink="http://www.w3.org/1999/xlink" zoomAndPan="magnify" preserveAspectRatio="xMidYMid meet" version="1.0" viewBox="8.8 10.01 357.11 355.03"><defs><clipPath id="3ebde580bf"><path d="M 72 94 L 181 94 L 181 365 L 72 365 Z M 72 94 " clip-rule="nonzero"/></clipPath><clipPath id="01817e7032"><path d="M 302.777344 10.296875 L 365.910156 301.277344 L 71.996094 365.042969 L 8.867188 74.066406 Z M 302.777344 10.296875 " clip-rule="nonzero"/></clipPath><clipPath id="8243697cc5"><path d="M 365.847656 300.992188 L 302.714844 10.011719 L 8.804688 73.777344 L 71.933594 364.757812 Z M 365.847656 300.992188 " clip-rule="nonzero"/></clipPath><clipPath id="5ac2ba11d3"><path d="M 71 92 L 182 92 L 182 365 L 71 365 Z M 71 92 " clip-rule="nonzero"/></clipPath><clipPath id="fd586635e5"><path d="M 302.777344 10.296875 L 365.910156 301.277344 L 71.996094 365.042969 L 8.867188 74.066406 Z M 302.777344 10.296875 " clip-rule="nonzero"/></clipPath><clipPath id="60f429e82d"><path d="M 365.847656 300.992188 L 302.714844 10.011719 L 8.804688 73.777344 L 71.933594 364.757812 Z M 365.847656 300.992188 " clip-rule="nonzero"/></clipPath><clipPath id="5b1a55a091"><path d="M 99 21 L 317 21 L 317 159 L 99 159 Z M 99 21 " clip-rule="nonzero"/></clipPath><clipPath id="2233fbdc5b"><path d="M 302.777344 10.296875 L 365.910156 301.277344 L 71.996094 365.042969 L 8.867188 74.066406 Z M 302.777344 10.296875 " clip-rule="nonzero"/></clipPath><clipPath id="8a4928b0ad"><path d="M 365.847656 300.992188 L 302.714844 10.011719 L 8.804688 73.777344 L 71.933594 364.757812 Z M 365.847656 300.992188 " clip-rule="nonzero"/></clipPath></defs><g clip-path="url(#3ebde580bf)"><g clip-path="url(#01817e7032)"><g clip-path="url(#8243697cc5)"><path fill="#d4a437" d="M 177.3125 94.222656 C 186.632812 97.839844 173.261719 146.347656 152.445312 174.964844 C 140.035156 206.09375 91.3125 328.164062 72.429688 364.597656 C 83.058594 324.964844 129.394531 201.960938 141.222656 170.609375 C 145.148438 135.445312 167.996094 90.613281 177.316406 94.226562 Z M 174.578125 102.1875 C 172.066406 101.214844 164.253906 115.339844 157.125 133.714844 C 149.996094 152.089844 146.242188 167.789062 148.75 168.761719 C 151.261719 169.738281 159.09375 155.617188 166.21875 137.242188 C 173.347656 118.867188 177.089844 103.160156 174.578125 102.1875 Z M 174.578125 102.1875 " fill-opacity="1" fill-rule="evenodd"/></g></g></g><g clip-path="url(#5ac2ba11d3)"><g clip-path="url(#fd586635e5)"><g clip-path="url(#60f429e82d)"><path stroke-linecap="butt" transform="matrix(-0.151571, -0.698616, -0.698616, 0.151571, 387.756747, 351.905278)" fill="none" stroke-linejoin="miter" d="M 414.682395 211.2613 C 406.973156 199.592774 344.626186 232.258907 311.678995 269.203733 C 272.804905 295.401731 120.379155 398.213542 76.173028 434.833344 C 127.200718 408.548201 281.610628 308.722263 320.961727 283.253894 C 367.868506 267.457685 422.379794 222.926803 414.675896 211.257118 Z M 404.605029 217.361662 C 406.679664 220.506831 389.68718 235.376327 366.68197 250.57184 C 343.67676 265.767353 323.32848 275.55544 321.255005 272.415611 C 319.175031 269.271601 336.156382 254.376563 359.16275 239.18639 C 382.16796 223.990877 402.530395 214.216493 404.605029 217.361662 Z M 404.605029 217.361662 " stroke="#000000" stroke-width="0.348" stroke-opacity="1" stroke-miterlimit="4"/></g></g></g><g clip-path="url(#5b1a55a091)"><g clip-path="url(#2233fbdc5b)"><g clip-path="url(#8a4928b0ad)"><path fill="#d4a437" d="M 155.132812 140.167969 C 153.664062 139.589844 169.949219 146.460938 149.410156 137.847656 C 128.871094 129.230469 116.53125 120.6875 99.824219 98.222656 C 98.707031 96.722656 99.015625 94.609375 100.515625 93.492188 C 102.015625 92.375 104.140625 92.679688 105.253906 94.179688 C 121.449219 115.953125 132.03125 123.328125 151.753906 131.519531 C 171.480469 139.707031 156.035156 133.253906 157.511719 133.832031 C 158.988281 134.414062 160.5 135.007812 162.082031 135.613281 C 163.492188 136.15625 165.015625 136.734375 166.605469 137.324219 C 166.527344 137.53125 166.457031 137.730469 166.375 137.9375 C 165.621094 139.886719 164.851562 141.769531 164.085938 143.605469 C 162.53125 143.027344 161.035156 142.464844 159.652344 141.933594 C 158.097656 141.335938 156.597656 140.746094 155.132812 140.167969 Z M 315.335938 68.683594 C 315.433594 69.128906 315.515625 69.566406 315.59375 70 C 315.777344 70.996094 315.914062 71.960938 316.007812 72.902344 C 316.75 80.441406 314.421875 86.617188 309.789062 90.261719 C 305.160156 93.902344 298.832031 94.957031 291.984375 94.25 C 285.136719 93.546875 277.613281 91.058594 270.117188 87.023438 C 268.46875 86.136719 267.855469 84.085938 268.738281 82.441406 C 269.625 80.792969 271.675781 80.179688 273.324219 81.0625 C 280.167969 84.75 286.957031 86.929688 292.675781 87.519531 C 298.398438 88.109375 302.898438 87.082031 305.609375 84.949219 C 308.324219 82.816406 309.863281 79.519531 309.277344 73.5625 C 308.6875 67.609375 305.65625 59.234375 299.09375 48.582031 C 286.414062 28 266.480469 25.417969 251.445312 30.546875 C 243.925781 33.113281 237.8125 37.726562 234.761719 42.738281 C 231.710938 47.75 231.316406 52.808594 235.105469 58.347656 C 243.785156 71.050781 254.074219 81.976562 260.882812 94.363281 C 267.6875 106.75 270.691406 120.925781 264.355469 138.417969 C 261.027344 147.613281 253.871094 153.308594 245.285156 156.027344 C 236.703125 158.746094 226.644531 158.816406 216.25 157.5625 C 199.816406 155.585938 182.488281 150.21875 169.246094 145.488281 C 170.144531 143.386719 170.992188 141.292969 171.792969 139.207031 C 184.792969 143.828125 201.625 148.992188 217.066406 150.851562 C 226.894531 152.035156 236.121094 151.835938 243.25 149.578125 C 250.382812 147.320312 255.375 143.332031 257.992188 136.105469 C 263.722656 120.28125 261.160156 108.921875 254.953125 97.621094 C 248.742188 86.320312 238.574219 75.40625 229.523438 62.160156 C 224.378906 54.632812 224.859375 46.007812 228.992188 39.21875 C 233.121094 32.433594 240.496094 27.132812 249.265625 24.140625 C 266.796875 18.15625 290.617188 21.914062 304.859375 45.03125 C 310.515625 54.214844 313.894531 62.019531 315.335938 68.6875 Z M 315.335938 68.683594 " fill-opacity="1" fill-rule="evenodd"/></g></g></g></svg>